{
  "accessors": [
    {
      "bufferView": 0,
      "componentType": 5125,
      "count": 8508,
      "type": "SCALAR"
    },
    {
      "bufferView": 1,
      "componentType": 5126,
      "count": 2396,
      "max": [
        0.049929515363487054,
        0.023193016995701088,
        0.013199999666539952
      ],
      "min": [
        -0.04992951536348706,
        -0.023193016995701088,
        -0.013199999666539952
      ],
      "type": "VEC3"
    },
    {
      "bufferView": 2,
      "componentType": 5126,
      "count": 2396,
      "max": [
        1.0,
        1.0,
        1.0
      ],
      "min": [
        -1.0,
        -1.0,
        -1.0
      ],
      "type": "VEC3"
    },
    {
      "bufferView": 3,
      "componentType": 5126,
      "count": 2396,
      "max": [
        1.0,
        0.8695170426773282
      ],
      "min": [
        0.0,
        0.0
      ],
      "type": "VEC2"
    }
  ],
  "asset": {
    "generator": "Adobe Illustrator",
    "version": "2.0"
  },
  "bufferViews": [
    {
      "buffer": 0,
      "byteLength": 34032,
      "target": 34963
    },
    {
      "buffer": 0,
      "byteLength": 28752,
      "byteOffset": 34032,
      "target": 34962
    },
    {
      "buffer": 0,
      "byteLength": 28752,
      "byteOffset": 62784,
      "target": 34962
    },
    {
      "buffer": 0,
      "byteLength": 19168,
      "byteOffset": 91536,
      "target": 34962
    }
  ],
  "buffers": [
    {
      "byteLength": 110704,
      "uri": "data:application/octet-stream;base64,"
    }
  ],
  "materials": [
    {
      "doubleSided": true,
      "pbrMetallicRoughness": {
        "baseColorFactor": [
          0.9999999403953552,
          0.9999999403953552,
          0.9999999403953552,
          1.0
        ],
        "metallicFactor": 0.0,
        "roughnessFactor": 0.4000000059604645
      }
    }
  ],
  "meshes": [
    {
      "primitives": [
        {
          "attributes": {
            "NORMAL": 2,
            "POSITION": 1,
            "TEXCOORD_0": 3
          },
          "indices": 0,
          "material": 0,
          "mode": 4
        }
      ]
    }
  ],
  "nodes": [
    {
      "mesh": 0
    }
  ],
  "scenes": [
    {
      "nodes": [
        0
      ]
    }
  ]
}
