{
  "accessors": [
    {
      "bufferView": 0,
      "componentType": 5125,
      "count": 2328,
      "type": "SCALAR"
    },
    {
      "bufferView": 1,
      "componentType": 5126,
      "count": 656,
      "max": [
        0.0035407515874149864,
        0.02787497045249232,
        -0.009979999747585967
      ],
      "min": [
        -0.0013981975714392886,
        0.019943078633027897,
        -0.009999999747378748
      ],
      "type": "VEC3"
    },
    {
      "bufferView": 2,
      "componentType": 5126,
      "count": 656,
      "max": [
        0.9998256489978397,
        0.9998256489978397,
        1.0
      ],
      "min": [
        -0.9998256489978397,
        -0.9998256489978397,
        -1.0
      ],
      "type": "VEC3"
    },
    {
      "bufferView": 3,
      "componentType": 5126,
      "count": 656,
      "max": [
        1.0,
        0.6535194149556882
      ],
      "min": [
        0.0,
        0.0
      ],
      "type": "VEC2"
    },
    {
      "bufferView": 4,
      "componentType": 5125,
      "count": 10698,
      "type": "SCALAR"
    },
    {
      "bufferView": 5,
      "componentType": 5126,
      "count": 2985,
      "max": [
        0.005514514930985509,
        0.027458630225775507,
        -0.009979999747585967
      ],
      "min": [
        -0.005514620113915569,
        0.01625513645120842,
        -0.009999999747378748
      ],
      "type": "VEC3"
    },
    {
      "bufferView": 6,
      "componentType": 5126,
      "count": 2985,
      "max": [
        0.9999964931881706,
        0.9999872757937934,
        1.0
      ],
      "min": [
        -0.9999981594851877,
        -0.9999864513125394,
        -1.0
      ],
      "type": "VEC3"
    },
    {
      "bufferView": 7,
      "componentType": 5126,
      "count": 2985,
      "max": [
        0.9960608322518612,
        1.0
      ],
      "min": [
        0.0,
        0.0
      ],
      "type": "VEC2"
    },
    {
      "bufferView": 8,
      "componentType": 5125,
      "count": 8148,
      "type": "SCALAR"
    },
    {
      "bufferView": 9,
      "componentType": 5126,
      "count": 1916,
      "max": [
        0.020650801457567702,
        0.03761960822458038,
        -0.0006904692567724375
      ],
      "min": [
        -0.020650828219080083,
        -0.0036820217767304375,
        -0.009999999747378748
      ],
      "type": "VEC3"
    },
    {
      "bufferView": 10,
      "componentType": 5126,
      "count": 1916,
      "max": [
        0.9999994163462412,
        0.9999994163247348,
        1.0
      ],
      "min": [
        -0.9999994163488648,
        -0.9999994163462451,
        -1.0
      ],
      "type": "VEC3"
    },
    {
      "bufferView": 11,
      "componentType": 5126,
      "count": 1916,
      "max": [
        0.8992488093053566,
        1.0
      ],
      "min": [
        0.0,
        0.0
      ],
      "type": "VEC2"
    },
    {
      "bufferView": 12,
      "componentType": 5125,
      "count": 4596,
      "type": "SCALAR"
    },
    {
      "bufferView": 13,
      "componentType": 5126,
      "count": 1288,
      "max": [
        0.026198289162603916,
        0.037835201212166825,
        -0.008357153229904728
      ],
      "min": [
        -0.026198230012118157,
        -0.014561862361112288,
        -0.009999999747378748
      ],
      "type": "VEC3"
    },
    {
      "bufferView": 14,
      "componentType": 5126,
      "count": 1288,
      "max": [
        0.9999396430638454,
        0.9999396314254414,
        1.0
      ],
      "min": [
        -0.999939638394284,
        -0.9999396353975917,
        -1.0
      ],
      "type": "VEC3"
    },
    {
      "bufferView": 15,
      "componentType": 5126,
      "count": 1288,
      "max": [
        0.899851704079057,
        1.0
      ],
      "min": [
        0.0,
        0.0
      ],
      "type": "VEC2"
    },
    {
      "bufferView": 16,
      "componentType": 5125,
      "count": 1212,
      "type": "SCALAR"
    },
    {
      "bufferView": 17,
      "componentType": 5126,
      "count": 348,
      "max": [
        0.04137297810262561,
        0.04137296588811272,
        0.009999999747378748
      ],
      "min": [
        -0.04137297810262558,
        -0.04137296588811271,
        -0.009999999747378748
      ],
      "type": "VEC3"
    },
    {
      "bufferView": 18,
      "componentType": 5126,
      "count": 348,
      "max": [
        0.9996818245483337,
        0.9996818377822583,
        1.0
      ],
      "min": [
        -0.9996818490220142,
        -0.9996818389399943,
        -1.0
      ],
      "type": "VEC3"
    },
    {
      "bufferView": 19,
      "componentType": 5126,
      "count": 348,
      "max": [
        1.0,
        0.9613487163144354
      ],
      "min": [
        0.0,
        0.0
      ],
      "type": "VEC2"
    }
  ],
  "asset": {
    "generator": "Adobe Illustrator",
    "version": "2.0"
  },
  "bufferViews": [
    {
      "buffer": 0,
      "byteLength": 9312,
      "target": 34963
    },
    {
      "buffer": 0,
      "byteLength": 7872,
      "byteOffset": 9312,
      "target": 34962
    },
    {
      "buffer": 0,
      "byteLength": 7872,
      "byteOffset": 17184,
      "target": 34962
    },
    {
      "buffer": 0,
      "byteLength": 5248,
      "byteOffset": 25056,
      "target": 34962
    },
    {
      "buffer": 0,
      "byteLength": 42792,
      "byteOffset": 30304,
      "target": 34963
    },
    {
      "buffer": 0,
      "byteLength": 35820,
      "byteOffset": 73096,
      "target": 34962
    },
    {
      "buffer": 0,
      "byteLength": 35820,
      "byteOffset": 108916,
      "target": 34962
    },
    {
      "buffer": 0,
      "byteLength": 23880,
      "byteOffset": 144736,
      "target": 34962
    },
    {
      "buffer": 0,
      "byteLength": 32592,
      "byteOffset": 168616,
      "target": 34963
    },
    {
      "buffer": 0,
      "byteLength": 22992,
      "byteOffset": 201208,
      "target": 34962
    },
    {
      "buffer": 0,
      "byteLength": 22992,
      "byteOffset": 224200,
      "target": 34962
    },
    {
      "buffer": 0,
      "byteLength": 15328,
      "byteOffset": 247192,
      "target": 34962
    },
    {
      "buffer": 0,
      "byteLength": 18384,
      "byteOffset": 262520,
      "target": 34963
    },
    {
      "buffer": 0,
      "byteLength": 15456,
      "byteOffset": 280904,
      "target": 34962
    },
    {
      "buffer": 0,
      "byteLength": 15456,
      "byteOffset": 296360,
      "target": 34962
    },
    {
      "buffer": 0,
      "byteLength": 10304,
      "byteOffset": 311816,
      "target": 34962
    },
    {
      "buffer": 0,
      "byteLength": 4848,
      "byteOffset": 322120,
      "target": 34963
    },
    {
      "buffer": 0,
      "byteLength": 4176,
      "byteOffset": 326968,
      "target": 34962
    },
    {
      "buffer": 0,
      "byteLength": 4176,
      "byteOffset": 331144,
      "target": 34962
    },
    {
      "buffer": 0,
      "byteLength": 2784,
      "byteOffset": 335320,
      "target": 34962
    }
  ],
  "buffers": [
    {
      "byteLength": 338104,
      "uri": "data:application/octet-stream;base64,"
    }
  ],
  "images": [
    {
      "name": "BaseColor",
      "uri": "data:image/png;base64,"
    },
    {
      "name": "BaseColor",
      "uri": "data:image/png;base64,"
    },
    {
      "name": "BaseColor",
      "uri": "data:image/png;base64,"
    },
    {
      "name": "BaseColor",
      "uri": "data:image/png;base64,"
    },
    {
      "name": "BaseColor",
      "uri": "data:image/png;base64,"
    }
  ],
  "materials": [
    {
      "doubleSided": true,
      "pbrMetallicRoughness": {
        "baseColorTexture": {
          "index": 0
        },
        "metallicFactor": 0.0,
        "roughnessFactor": 0.4000000059604645
      }
    },
    {
      "doubleSided": true,
      "pbrMetallicRoughness": {
        "baseColorTexture": {
          "index": 1
        },
        "metallicFactor": 0.0,
        "roughnessFactor": 0.4000000059604645
      }
    },
    {
      "doubleSided": true,
      "pbrMetallicRoughness": {
        "baseColorTexture": {
          "index": 2
        },
        "metallicFactor": 0.0,
        "roughnessFactor": 0.4000000059604645
      }
    },
    {
      "doubleSided": true,
      "pbrMetallicRoughness": {
        "baseColorTexture": {
          "index": 3
        },
        "metallicFactor": 0.0,
        "roughnessFactor": 0.4000000059604645
      }
    },
    {
      "doubleSided": true,
      "pbrMetallicRoughness": {
        "baseColorTexture": {
          "index": 4
        },
        "metallicFactor": 0.0,
        "roughnessFactor": 0.4000000059604645
      }
    }
  ],
  "meshes": [
    {
      "primitives": [
        {
          "attributes": {
            "NORMAL": 2,
            "POSITION": 1,
            "TEXCOORD_0": 3
          },
          "indices": 0,
          "material": 0,
          "mode": 4
        }
      ]
    },
    {
      "primitives": [
        {
          "attributes": {
            "NORMAL": 6,
            "POSITION": 5,
            "TEXCOORD_0": 7
          },
          "indices": 4,
          "material": 1,
          "mode": 4
        }
      ]
    },
    {
      "primitives": [
        {
          "attributes": {
            "NORMAL": 10,
            "POSITION": 9,
            "TEXCOORD_0": 11
          },
          "indices": 8,
          "material": 2,
          "mode": 4
        }
      ]
    },
    {
      "primitives": [
        {
          "attributes": {
            "NORMAL": 14,
            "POSITION": 13,
            "TEXCOORD_0": 15
          },
          "indices": 12,
          "material": 3,
          "mode": 4
        }
      ]
    },
    {
      "primitives": [
        {
          "attributes": {
            "NORMAL": 18,
            "POSITION": 17,
            "TEXCOORD_0": 19
          },
          "indices": 16,
          "material": 4,
          "mode": 4
        }
      ]
    }
  ],
  "nodes": [
    {
      "mesh": 0
    },
    {
      "mesh": 1
    },
    {
      "mesh": 2
    },
    {
      "mesh": 3
    },
    {
      "mesh": 4
    }
  ],
  "samplers": [
    {
      "magFilter": 9729,
      "minFilter": 9729,
      "wrapS": 10497,
      "wrapT": 10497
    },
    {
      "magFilter": 9729,
      "minFilter": 9729,
      "wrapS": 10497,
      "wrapT": 10497
    },
    {
      "magFilter": 9729,
      "minFilter": 9729,
      "wrapS": 10497,
      "wrapT": 10497
    },
    {
      "magFilter": 9729,
      "minFilter": 9729,
      "wrapS": 10497,
      "wrapT": 10497
    },
    {
      "magFilter": 9729,
      "minFilter": 9729,
      "wrapS": 10497,
      "wrapT": 10497
    }
  ],
  "scenes": [
    {
      "nodes": [
        0,
        1,
        2,
        3,
        4
      ]
    }
  ],
  "textures": [
    {
      "sampler": 0,
      "source": 0
    },
    {
      "sampler": 1,
      "source": 1
    },
    {
      "sampler": 2,
      "source": 2
    },
    {
      "sampler": 3,
      "source": 3
    },
    {
      "sampler": 4,
      "source": 4
    }
  ]
}
